<?xml version="1.0" encoding="UTF-8"?>
<!DOCTYPE svg PUBLIC "-//W3C//DTD SVG 1.1//EN" "http://www.w3.org/Graphics/SVG/1.1/DTD/svg11.dtd">
<!-- Creator: CorelDRAW 2020 (64 Bit) -->
<svg xmlns="http://www.w3.org/2000/svg" xml:space="preserve" width="100mm" height="100mm" version="1.1" style="shape-rendering:geometricPrecision; text-rendering:geometricPrecision; image-rendering:optimizeQuality; fill-rule:evenodd; clip-rule:evenodd"
viewBox="0 0 10000 10000"
 xmlns:xlink="http://www.w3.org/1999/xlink"
 xmlns:xodm="http://www.corel.com/coreldraw/odm/2003">
 <defs>
  <style type="text/css">
   <![CDATA[
    .fil1 {fill:#FEFEFE}
    .fil0 {fill:#373435}
    .fil2 {fill:#373435;fill-rule:nonzero}
   ]]>
  </style>
 </defs>
 <g id="Camada_x0020_1">
  <metadata id="CorelCorpID_0Corel-Layer"/>
  <path class="fil0" d="M6319.95 5124.51c6.47,76.42 82.69,99.33 150.05,109.84 47.7,7.45 97.63,0.6 146.71,3.04 67.3,0.52 135.55,-10.51 206.91,-9.19 36.98,0.68 78.95,1.63 120.01,3.36 222.99,9.42 -28.74,184.67 118.4,340.75 58.71,62.28 93.9,47.39 133.13,18.74 34.64,-25.3 82.94,-53.71 113.6,-82.19 5.85,-46.27 -37.22,-93.16 -41.01,-154.73 -6.29,-101.86 100.63,-137.08 -40.74,-293.33l-67.6 -87.08c-11.06,-14.01 -16.13,-35.68 19.91,-61.92 34.72,-25.27 81.75,-54.06 100.42,-66.07 27.8,-17.88 39.93,-26 69.8,-45.79 12.67,-8.39 23.2,-14.69 34.66,-23.21 13.12,-9.74 14,-13.74 28.08,-23.27 124.92,-84.67 124.33,-169.71 80.19,-325.8 -33.71,-119.17 -101.33,-205.03 -191.98,-263.46 -61.68,-39.76 -231.99,-129.62 -316.18,-135.63 -170.24,-12.14 -420.65,311.27 -480.19,433.87 -64.33,132.46 -19.51,237.64 71.71,329.55 38.61,38.91 80.17,59.37 133.43,91.8 171.64,104.51 38.42,163.76 -80.62,189.75 -60.88,13.29 -92.3,4.11 -122.66,-54.56 -24.24,-46.86 -6.54,-90.97 -29.64,-120.04 -79.84,9.48 -164.21,133.67 -156.39,225.57z"/>
  <path class="fil1" d="M6821.96 4532.28c26.55,49.92 46.31,52.6 88.6,45.1 18.97,-34.6 18.24,-76.5 -6.46,-112.86 -65.12,-9.61 -74.57,15.34 -82.14,67.76zm331.28 -157.35c15.87,37.74 29.96,40.96 60.95,38.31 15.94,-23.7 18.14,-53.97 2.72,-81.81 -46.35,-11.19 -54.79,6.18 -63.67,43.5z"/>
  <path class="fil2" d="M2732.92 5462.03c65.47,0 98.21,19.47 98.21,58.42l76.2 0 0 -126.15c-58.14,-27.66 -116.27,-41.49 -174.41,-41.49 -90.88,0 -156.92,25.68 -198.12,77.05 -41.21,51.36 -61.81,130.1 -61.81,236.22 0,106.11 20.6,184.86 61.81,236.22 41.2,51.36 107.24,77.05 198.12,77.05 58.14,0 116.27,-13.83 174.41,-41.49l0 -43.18 0 -214.21 -135.47 0 0 187.12c-12.98,1.69 -25.96,2.54 -38.94,2.54 -46.85,0 -78.74,-16.8 -95.68,-50.38 -16.93,-33.59 -25.4,-84.81 -25.4,-153.67 0,-69.43 8.33,-120.79 24.98,-154.1 16.65,-33.3 48.68,-49.95 96.1,-49.95zm667.18 508.85l8.46 -159.17 -76.2 0c-2.82,14.67 -6.77,25.4 -11.85,32.17 -5.08,6.77 -10.44,10.72 -16.09,11.85 -5.64,1.13 -15.52,1.7 -29.63,1.7l-119.38 0 0 -363.23c0,-18.62 2.26,-30.33 6.77,-35.13 4.52,-4.8 17.5,-7.2 38.95,-7.2l0 -90.59 -227.76 0 0 90.59c22.02,0 35.28,2.4 39.8,7.2 4.51,4.8 6.77,16.51 6.77,35.13l0 343.75c0,18.63 -2.26,30.34 -6.77,35.14 -4.52,4.8 -17.78,7.2 -39.8,7.2l0 90.59 426.73 0zm382.69 -613.84l-182.88 0 -130.38 486.84c-3.95,15.24 -9.32,25.12 -16.09,29.63 -6.77,4.52 -17.78,6.78 -33.02,6.78l0 90.59 146.47 0 35.56 -137.16 166.8 0 33.86 137.16 154.1 0 0 -90.59c-14.11,0 -24.41,-1.56 -30.9,-4.66 -6.5,-3.1 -11.15,-10.02 -13.97,-20.74l-129.55 -497.85zm-45.72 363.23l-103.29 0 22.01 -92.29 29.64 -124.46 1.69 0c2.82,14.11 7.34,34.15 13.55,60.11 6.21,25.97 10.44,43.75 12.7,53.34l23.7 103.3zm860.22 -226.07c0,-18.62 2.26,-30.33 6.77,-35.13 4.52,-4.8 17.5,-7.2 38.95,-7.2l0 -90.59 -226.91 0 -66.89 239.61c-6.2,23.14 -14.67,61.52 -25.4,115.14l-3.38 0c-2.26,-9.59 -5.08,-21.16 -8.47,-34.71 -3.39,-13.55 -7.2,-28.51 -11.43,-44.87 -4.23,-16.37 -7.2,-28.23 -8.89,-35.56l-68.58 -239.61 -226.91 0 0 90.59c22.02,0 35.28,2.4 39.8,7.2 4.51,4.8 6.77,16.51 6.77,35.13l0 343.75c0,18.63 -2.26,30.34 -6.77,35.14 -4.52,4.8 -17.78,7.2 -39.8,7.2l0 90.59 171.03 0 0 -181.19c0,-67.73 -2.54,-127.84 -7.62,-180.34l4.23 0 108.38 361.53 88.05 0 108.38 -361.53 4.23 0c-5.08,52.5 -7.62,112.61 -7.62,180.34l0 181.19 177.8 0 0 -90.59c-21.45,0 -34.43,-2.4 -38.95,-7.2 -4.51,-4.8 -6.77,-16.51 -6.77,-35.14l0 -343.75zm346.28 485.15c167.65,0 251.47,-105.84 251.47,-317.5 0,-206.03 -83.82,-309.04 -251.47,-309.04 -167.64,0 -251.46,103.01 -251.46,309.04 0,211.66 83.82,317.5 251.46,317.5zm0 -517.32c42.34,0 71.69,14.54 88.06,43.6 16.37,29.07 24.55,81.14 24.55,156.22 0,76.2 -8.32,129.96 -24.98,161.29 -16.65,31.32 -45.86,46.99 -87.63,46.99 -41.76,0 -70.97,-15.67 -87.63,-46.99 -16.65,-31.33 -24.97,-85.09 -24.97,-161.29 0,-75.08 8.18,-127.15 24.55,-156.22 16.37,-29.06 45.72,-43.6 88.05,-43.6zm299.72 -100.75l0 90.59c22.02,0 35.28,2.4 39.8,7.2 4.51,4.8 6.77,16.51 6.77,35.13l0 343.75c0,18.63 -2.26,30.34 -6.77,35.14 -4.52,4.8 -17.78,7.2 -39.8,7.2l0 90.59 227.76 0 0 -90.59c-21.45,0 -34.43,-2.4 -38.95,-7.2 -4.51,-4.8 -6.77,-16.51 -6.77,-35.14l0 -363.22 65.19 0c56.45,0 84.67,25.97 84.67,77.9 0,25.96 -6.49,45.57 -19.48,58.84 -12.98,13.26 -34.71,19.9 -65.19,19.9l-31.33 0 0 113.45 18.63 0c27.66,0.56 45.44,13.55 53.34,38.95l59.27 187.11 167.64 0 0 -90.59c-20.32,0 -33.3,-1.7 -38.95,-5.08 -5.64,-3.39 -10.72,-12.7 -15.24,-27.94l-9.31 -27.94c-18.06,-52.5 -40.36,-84.11 -66.89,-94.83l0 -9.31c57.58,-27.1 86.36,-81.28 86.36,-162.56 0,-127.57 -74.5,-191.35 -223.52,-191.35l-247.23 0zm728.14 132.92c0,-18.62 2.26,-30.33 6.77,-35.13 4.52,-4.8 17.5,-7.2 38.95,-7.2l0 -90.59 -227.76 0 0 90.59c22.02,0 35.28,2.4 39.8,7.2 4.51,4.8 6.77,16.51 6.77,35.13l0 343.75c0,18.63 -2.26,30.34 -6.77,35.14 -4.52,4.8 -17.78,7.2 -39.8,7.2l0 90.59 227.76 0 0 -90.59c-21.45,0 -34.43,-2.4 -38.95,-7.2 -4.51,-4.8 -6.77,-16.51 -6.77,-35.14l0 -343.75zm310.73 -32.17c67.17,0 100.75,19.47 100.75,58.42l76.2 0 0 -126.15c-58.14,-27.66 -119.66,-41.49 -184.57,-41.49 -55.32,0 -101.89,14.82 -139.7,44.45 -37.82,29.63 -56.73,72.39 -56.73,128.27 0,35 8.75,65.9 26.25,92.71 17.49,26.81 38.8,48.12 63.92,63.93 25.12,15.8 50.24,30.19 75.35,43.18 25.12,12.98 46.43,26.52 63.93,40.64 17.5,14.11 26.24,29.35 26.24,45.72 0,38.94 -24.83,58.42 -74.5,58.42 -49.11,0 -110.92,-16.65 -185.42,-49.96l0 117.69c54.75,27.66 118.25,41.49 190.5,41.49 64.34,0 115.14,-16.23 152.4,-48.69 37.25,-32.45 55.88,-76.9 55.88,-133.35 0,-29.91 -6.35,-57.01 -19.05,-81.28 -12.7,-24.27 -28.37,-43.88 -46.99,-58.84 -18.63,-14.96 -39.09,-29.21 -61.39,-42.76 -22.29,-13.54 -42.75,-24.83 -61.38,-33.86 -18.63,-9.04 -34.29,-19.34 -46.99,-30.91 -12.7,-11.57 -19.05,-23.28 -19.05,-35.14 0,-34.99 21.45,-52.49 64.35,-52.49zm679.03 508.85l8.47 -159.17 -76.2 0c-2.82,14.67 -6.78,25.4 -11.86,32.17 -5.08,6.77 -10.44,10.72 -16.08,11.85 -5.65,1.13 -15.52,1.7 -29.64,1.7l-127.84 0 0 -143.09 176.95 0 0 -112.61 -176.95 0 0 -127 135.46 0c18.07,0 29.64,2.26 34.72,6.77 5.08,4.52 7.62,17.5 7.62,38.95l76.2 0 0 -159.17 -436.04 0 0 90.59c22.02,0 35.28,2.4 39.8,7.2 4.51,4.8 6.77,16.51 6.77,35.13l0 343.75c0,18.63 -2.26,30.34 -6.77,35.14 -4.52,4.8 -17.78,7.2 -39.8,7.2l0 90.59 435.19 0z"/>
 </g>
</svg>
