<?xml version="1.0" encoding="UTF-8"?>
<!DOCTYPE svg PUBLIC "-//W3C//DTD SVG 1.1//EN" "http://www.w3.org/Graphics/SVG/1.1/DTD/svg11.dtd">
<!-- Creator: CorelDRAW 2020 (64 Bit) -->
<svg xmlns="http://www.w3.org/2000/svg" xml:space="preserve" width="50mm" height="20mm" version="1.1" style="shape-rendering:geometricPrecision; text-rendering:geometricPrecision; image-rendering:optimizeQuality; fill-rule:evenodd; clip-rule:evenodd"
viewBox="0 0 5000 2000"
 xmlns:xlink="http://www.w3.org/1999/xlink"
 xmlns:xodm="http://www.corel.com/coreldraw/odm/2003">
 <defs>
  <style type="text/css">
   <![CDATA[
    .fil1 {fill:#FEFEFE}
    .fil0 {fill:#373435}
    .fil2 {fill:#373435;fill-rule:nonzero}
   ]]>
  </style>
 </defs>
 <g id="Camada_x0020_1">
  <metadata id="CorelCorpID_0Corel-Layer"/>
  <g id="_2421772436304">
   <g>
    <path class="fil0" d="M3822.2 1125.03c6.33,74.68 80.81,97.07 146.63,107.34 46.62,7.28 95.41,0.59 143.37,2.97 65.76,0.51 132.45,-10.27 202.19,-8.98 36.13,0.67 77.14,1.6 117.27,3.29 217.9,9.2 -28.09,180.45 115.7,332.98 57.37,60.86 91.76,46.3 130.09,18.31 33.86,-24.73 81.05,-52.49 111.01,-80.32 5.72,-45.21 -36.37,-91.04 -40.08,-151.2 -6.14,-99.54 98.34,-133.95 -39.81,-286.64l-66.05 -85.09c-10.81,-13.69 -15.77,-34.87 19.45,-60.51 33.93,-24.7 79.89,-52.83 98.13,-64.57 27.17,-17.47 39.02,-25.41 68.21,-44.74 12.38,-8.2 22.67,-14.36 33.87,-22.68 12.82,-9.52 13.68,-13.43 27.44,-22.74 122.07,-82.74 121.49,-165.84 78.36,-318.37 -32.94,-116.45 -99.02,-200.35 -187.61,-257.45 -60.27,-38.85 -226.69,-126.66 -308.96,-132.53 -166.36,-11.87 -411.06,304.17 -469.23,423.97 -62.87,129.44 -19.07,232.22 70.07,322.03 37.73,38.02 78.34,58.01 130.38,89.71 167.73,102.13 37.55,160.02 -78.77,185.42 -59.5,12.99 -90.2,4.01 -119.87,-53.31 -23.69,-45.79 -6.39,-88.9 -28.97,-117.3 -78.01,9.25 -160.46,130.61 -152.82,220.41z"/>
    <path class="fil1" d="M4312.76 546.31c25.95,48.79 45.26,51.41 86.58,44.08 18.54,-33.81 17.83,-74.76 -6.31,-110.3 -63.64,-9.39 -72.86,15 -80.27,66.22zm323.73 -153.76c15.51,36.88 29.27,40.03 59.56,37.44 15.58,-23.17 17.73,-52.74 2.65,-79.95 -45.28,-10.93 -53.53,6.04 -62.21,42.51z"/>
   </g>
   <path class="fil2" d="M248.33 1454.86c63.98,0 95.97,19.03 95.97,57.09l74.46 0 0 -123.28c-56.81,-27.02 -113.62,-40.54 -170.43,-40.54 -88.81,0 -153.34,25.1 -193.6,75.29 -40.27,50.2 -60.4,127.14 -60.4,230.83 0,103.7 20.13,180.64 60.4,230.83 40.26,50.2 104.79,75.29 193.6,75.29 56.81,0 113.62,-13.51 170.43,-40.54l0 -42.19 0 -209.32 -132.37 0 0 182.84c-12.69,1.66 -25.38,2.49 -38.06,2.49 -45.78,0 -76.95,-16.41 -93.49,-49.23 -16.55,-32.82 -24.82,-82.87 -24.82,-150.17 0,-67.84 8.13,-118.03 24.4,-150.57 16.27,-32.55 47.58,-48.82 93.91,-48.82zm651.95 497.24l8.28 -155.54 -74.47 0c-2.75,14.34 -6.62,24.82 -11.58,31.44 -4.96,6.62 -10.2,10.48 -15.72,11.58 -5.51,1.1 -15.17,1.66 -28.96,1.66l-116.65 0 0 -354.94c0,-18.2 2.2,-29.64 6.62,-34.33 4.41,-4.69 17.09,-7.04 38.05,-7.04l0 -88.52 -222.55 0 0 88.52c21.51,0 34.47,2.35 38.88,7.04 4.42,4.69 6.62,16.13 6.62,34.33l0 335.91c0,18.2 -2.2,29.64 -6.62,34.33 -4.41,4.69 -17.37,7.03 -38.88,7.03l0 88.53 416.98 0zm373.96 -599.83l-178.71 0 -127.41 475.73c-3.86,14.89 -9.1,24.54 -15.72,28.95 -6.62,4.42 -17.37,6.62 -32.27,6.62l0 88.53 143.14 0 34.74 -134.03 162.99 0 33.1 134.03 150.57 0 0 -88.53c-13.79,0 -23.85,-1.51 -30.19,-4.55 -6.35,-3.03 -10.9,-9.79 -13.66,-20.27l-126.58 -486.48zm-44.68 354.93l-100.93 0 21.51 -90.18 28.95 -121.62 1.66 0c2.76,13.79 7.17,33.37 13.24,58.74 6.06,25.38 10.2,42.75 12.41,52.13l23.16 100.93zm840.59 -220.9c0,-18.2 2.2,-29.64 6.61,-34.33 4.42,-4.69 17.1,-7.04 38.06,-7.04l0 -88.52 -221.73 0 -65.36 234.14c-6.07,22.61 -14.34,60.12 -24.82,112.52l-3.31 0c-2.2,-9.38 -4.96,-20.69 -8.27,-33.92 -3.31,-13.24 -7.03,-27.86 -11.17,-43.85 -4.14,-16 -7.03,-27.58 -8.69,-34.75l-67.01 -234.14 -221.73 0 0 88.52c21.51,0 34.47,2.35 38.88,7.04 4.42,4.69 6.62,16.13 6.62,34.33l0 335.91c0,18.2 -2.2,29.64 -6.62,34.33 -4.41,4.69 -17.37,7.03 -38.88,7.03l0 88.53 167.12 0 0 -177.05c0,-66.19 -2.48,-124.93 -7.44,-176.23l4.13 0 105.9 353.28 86.05 0 105.9 -353.28 4.14 0c-4.97,51.3 -7.45,110.04 -7.45,176.23l0 177.05 173.74 0 0 -88.53c-20.96,0 -33.64,-2.34 -38.06,-7.03 -4.41,-4.69 -6.61,-16.13 -6.61,-34.33l0 -335.91zm338.39 474.07c163.81,0 245.72,-103.42 245.72,-310.25 0,-201.32 -81.91,-301.99 -245.72,-301.99 -163.82,0 -245.73,100.67 -245.73,301.99 0,206.83 81.91,310.25 245.73,310.25zm0 -505.51c41.36,0 70.05,14.21 86.04,42.61 16,28.41 23.99,79.29 23.99,152.65 0,74.46 -8.13,127 -24.4,157.61 -16.27,30.61 -44.82,45.92 -85.63,45.92 -40.82,0 -69.36,-15.31 -85.63,-45.92 -16.28,-30.61 -24.41,-83.15 -24.41,-157.61 0,-73.36 8,-124.24 23.99,-152.65 16,-28.4 44.68,-42.61 86.05,-42.61zm292.88 -98.45l0 88.52c21.51,0 34.47,2.35 38.88,7.04 4.42,4.69 6.62,16.13 6.62,34.33l0 335.91c0,18.2 -2.2,29.64 -6.62,34.33 -4.41,4.69 -17.37,7.03 -38.88,7.03l0 88.53 222.55 0 0 -88.53c-20.96,0 -33.64,-2.34 -38.05,-7.03 -4.42,-4.69 -6.62,-16.13 -6.62,-34.33l0 -354.94 63.7 0c55.16,0 82.74,25.37 82.74,76.12 0,25.37 -6.34,44.54 -19.03,57.5 -12.69,12.96 -33.92,19.44 -63.71,19.44l-30.61 0 0 110.87 18.2 0c27.03,0.55 44.4,13.24 52.13,38.06l57.91 182.84 163.82 0 0 -88.53c-19.86,0 -32.55,-1.65 -38.06,-4.96 -5.52,-3.31 -10.48,-12.41 -14.89,-27.3l-9.11 -27.31c-17.65,-51.29 -39.43,-82.18 -65.36,-92.66l0 -9.1c56.26,-26.47 84.39,-79.43 84.39,-158.85 0,-124.65 -72.8,-186.98 -218.42,-186.98l-241.58 0zm711.52 129.89c0,-18.2 2.2,-29.64 6.62,-34.33 4.41,-4.69 17.09,-7.04 38.05,-7.04l0 -88.52 -222.55 0 0 88.52c21.51,0 34.47,2.35 38.88,7.04 4.42,4.69 6.62,16.13 6.62,34.33l0 335.91c0,18.2 -2.2,29.64 -6.62,34.33 -4.41,4.69 -17.37,7.03 -38.88,7.03l0 88.53 222.55 0 0 -88.53c-20.96,0 -33.64,-2.34 -38.05,-7.03 -4.42,-4.69 -6.62,-16.13 -6.62,-34.33l0 -335.91zm303.64 -31.44c65.63,0 98.45,19.03 98.45,57.09l74.46 0 0 -123.28c-56.81,-27.02 -116.93,-40.54 -180.36,-40.54 -54.05,0 -99.56,14.48 -136.51,43.44 -36.96,28.96 -55.44,70.74 -55.44,125.34 0,34.2 8.55,64.4 25.65,90.6 17.1,26.2 37.92,47.02 62.47,62.46 24.54,15.45 49.09,29.51 73.63,42.2 24.55,12.68 45.37,25.92 62.47,39.71 17.1,13.79 25.64,28.68 25.64,44.68 0,38.06 -24.26,57.09 -72.8,57.09 -47.99,0 -108.39,-16.28 -181.19,-48.82l0 115c53.5,27.03 115.55,40.54 186.15,40.54 62.88,0 112.52,-15.85 148.92,-47.57 36.41,-31.71 54.61,-75.15 54.61,-130.31 0,-29.23 -6.21,-55.7 -18.62,-79.42 -12.41,-23.72 -27.71,-42.89 -45.91,-57.5 -18.21,-14.62 -38.2,-28.55 -59.99,-41.78 -21.78,-13.24 -41.78,-24.27 -59.98,-33.1 -18.2,-8.82 -33.51,-18.89 -45.92,-30.2 -12.41,-11.3 -18.61,-22.75 -18.61,-34.33 0,-34.2 20.96,-51.3 62.88,-51.3zm663.53 497.24l8.27 -155.54 -74.46 0c-2.76,14.34 -6.62,24.82 -11.59,31.44 -4.96,6.62 -10.2,10.48 -15.72,11.58 -5.51,1.1 -15.16,1.66 -28.95,1.66l-124.92 0 0 -139.83 172.9 0 0 -110.03 -172.9 0 0 -124.11 132.36 0c17.65,0 28.96,2.21 33.92,6.62 4.97,4.41 7.45,17.1 7.45,38.06l74.46 0 0 -155.54 -426.07 0 0 88.52c21.51,0 34.47,2.35 38.88,7.04 4.42,4.69 6.62,16.13 6.62,34.33l0 335.91c0,18.2 -2.2,29.64 -6.62,34.33 -4.41,4.69 -17.37,7.03 -38.88,7.03l0 88.53 425.25 0z"/>
  </g>
 </g>
</svg>
